<?xml version="1.0" encoding="UTF-8"?>
<svg width="542px" height="632px" viewBox="0 0 542 632" version="1.1" xmlns="http://www.w3.org/2000/svg" xmlns:xlink="http://www.w3.org/1999/xlink">
    <!-- Generator: Sketch 58 (84663) - https://sketch.com -->
    <title>guy</title>
    <desc>Created with Sketch.</desc>
    <g id="Page-1" stroke="none" stroke-width="1" fill="none" fill-rule="evenodd">
        <g id="Artboard" transform="translate(-66.000000, -57.000000)">
            <g id="guy" transform="translate(66.000000, 64.000000)">
                <g id="body" transform="translate(0.000000, 113.000000)" fill-rule="nonzero">
                    <path d="M356.472656,504.5 L62.429688,504.5 C32.09375,504.5 7.5,479.90625 7.5,449.570312 L7.5,62.425781 C7.5,32.089844 32.09375,7.5 62.429688,7.5 L188.308594,7.5 C215.398438,7.5 241.375,18.257812 260.527344,37.414062 L381.488281,158.375 C400.640625,177.527344 411.402344,203.507812 411.402344,230.59375 L411.402344,449.570312 C411.402344,479.90625 386.808594,504.5 356.472656,504.5 Z" id="Path" fill="#A1B1FD"></path>
                    <path d="M225.574219,218.609375 C250.304688,275.714844 316.714844,272.449219 319.648438,381.753906 C321.292969,443.097656 311.785156,482.089844 303.128906,504.5 L356.476562,504.5 C386.8125,504.5 411.402344,479.90625 411.402344,449.574219 L411.402344,230.59375 C411.402344,203.507812 400.644531,177.53125 381.492188,158.378906 L318.886719,95.773438 L230.902344,95.773438 C230.898438,95.773438 200.839844,161.507812 225.574219,218.609375 Z" id="Path" fill="#8E9DE7"></path>
                    <path d="M381.488281,158.378906 L260.527344,37.414062 C251.796875,28.683594 241.640625,21.691406 230.613281,16.671875 L230.613281,137.09375 C230.613281,165.367188 253.535156,188.289062 281.808594,188.289062 L402.226562,188.289062 C397.210938,177.265625 390.21875,167.105469 381.488281,158.378906 L381.488281,158.378906 Z" id="Path" fill="#D1D7F6"></path>
                    <path d="M386.792969,153.074219 L265.832031,32.109375 C245.125,11.402344 217.59375,0 188.308594,0 L62.429688,0 C28.003906,0 0,28.003906 0,62.429688 L0,376.21875 C0,380.359375 3.359375,383.71875 7.5,383.71875 C11.640625,383.71875 15,380.359375 15,376.21875 L15,62.429688 C15,36.277344 36.277344,15 62.429688,15 L188.308594,15 C200.417969,15 212.179688,17.265625 223.113281,21.585938 L223.113281,137.09375 C223.113281,169.457031 249.445312,195.789062 281.808594,195.789062 L369.996094,195.789062 C374.136719,195.789062 377.496094,192.429688 377.496094,188.289062 C377.496094,184.144531 374.136719,180.789062 369.996094,180.789062 L281.808594,180.789062 C257.714844,180.789062 238.113281,161.1875 238.113281,137.09375 L238.113281,29.132812 C244.246094,32.941406 249.988281,37.484375 255.222656,42.71875 L376.1875,163.679688 C394.058594,181.554688 403.902344,205.316406 403.902344,230.59375 L403.902344,449.574219 C403.902344,475.722656 382.625,497 356.472656,497 L62.429688,497 C36.277344,497 15,475.726562 15,449.574219 L15,410.175781 C15,406.03125 11.640625,402.675781 7.5,402.675781 C3.359375,402.675781 0,406.03125 0,410.175781 L0,449.574219 C0,483.996094 28.003906,512 62.429688,512 L356.476562,512 C390.898438,512 418.902344,483.996094 418.902344,449.574219 L418.902344,230.59375 C418.902344,201.3125 407.5,173.78125 386.792969,153.074219 L386.792969,153.074219 Z" id="Path" fill="#000000"></path>
                </g>
                <g id="text" transform="translate(64.000000, 430.000000)" fill="#FDFFDE" fill-rule="nonzero">
                    <path d="M274.28125,64.753906 L255.648438,64.753906 C251.503906,64.753906 248.148438,68.109375 248.148438,72.253906 C248.148438,76.394531 251.503906,79.753906 255.648438,79.753906 L266.78125,79.753906 L266.78125,88.6875 C266.78125,99.882812 257.675781,108.988281 246.480469,108.988281 C235.285156,108.988281 226.175781,99.882812 226.175781,88.6875 L226.175781,41.183594 C226.175781,29.988281 235.285156,20.882812 246.480469,20.882812 C254,20.882812 260.871094,25.007812 264.414062,31.652344 C266.363281,35.308594 270.90625,36.691406 274.558594,34.746094 C278.214844,32.796875 279.597656,28.253906 277.648438,24.597656 C271.496094,13.054688 259.550781,5.882812 246.480469,5.882812 C227.011719,5.882812 211.175781,21.71875 211.175781,41.183594 L211.175781,88.6875 C211.175781,108.152344 227.011719,123.988281 246.480469,123.988281 C265.945312,123.988281 281.78125,108.152344 281.78125,88.6875 L281.78125,72.253906 C281.78125,68.109375 278.425781,64.753906 274.28125,64.753906 L274.28125,64.753906 Z" id="Path"></path>
                    <path d="M181.46875,6.242188 C177.527344,4.972656 173.300781,7.140625 172.03125,11.085938 L146.007812,91.992188 L119.988281,11.085938 C118.71875,7.140625 114.492188,4.972656 110.550781,6.242188 C106.609375,7.511719 104.4375,11.734375 105.707031,15.679688 L138.871094,118.785156 C139.867188,121.886719 142.753906,123.988281 146.011719,123.988281 C149.265625,123.988281 152.152344,121.886719 153.152344,118.785156 L186.3125,15.679688 C187.578125,11.734375 185.410156,7.511719 181.46875,6.242188 L181.46875,6.242188 Z" id="Path"></path>
                    <path d="M40.6672017,0 C43.9211077,0 46.8078267,2.101562 47.8078267,5.203125 L80.9679827,108.308593 C82.2336077,112.253906 80.0656387,116.476562 76.1242327,117.746093 C72.1828267,119.015625 67.9562637,116.847656 66.6867327,112.902343 C62.5339477,99.9914331 59.6496124,91.0241035 58.033727,86.000354 L23.2956634,85.9997534 C23.2870369,86.0265772 23.2784043,86.0534196 23.2697658,86.0802807 C21.6636905,91.0742804 18.7883564,100.014968 14.6437637,112.902343 C13.3742327,116.847656 9.14767068,119.015625 5.20626368,117.746093 C1.26485768,116.476562 -0.907017323,112.253906 0.362513677,108.308593 L33.5265767,5.203125 C34.5226707,2.101562 37.4093887,0 40.6672017,0 Z M40.6632947,31.996093 C35.0891091,49.3287056 30.907832,62.3301486 28.1194635,71.0004218 L53.2085756,70.9990731 C53.1900972,70.9416242 53.1716749,70.8843497 53.1533086,70.8272495 C50.37775,62.1981036 46.214412,49.2543848 40.6632947,31.996093 Z" id="Combined-Shape"></path>
                </g>
                <g id="face" transform="translate(121.292969, 355.062500)" fill="#000000" fill-rule="nonzero">
                    <path d="M176.316406,19.949219 L176.316406,7.5 C176.316406,3.359375 172.957031,-1.42108547e-14 168.816406,-1.42108547e-14 C164.671875,-1.42108547e-14 161.316406,3.359375 161.316406,7.5 L161.316406,19.949219 C161.316406,24.09375 164.671875,27.449219 168.816406,27.449219 C172.957031,27.449219 176.316406,24.09375 176.316406,19.949219 Z" id="Path"></path>
                    <path d="M15,19.949219 L15,7.5 C15,3.359375 11.644531,-1.42108547e-14 7.5,-1.42108547e-14 C3.359375,-1.42108547e-14 0,3.359375 0,7.5 L0,19.949219 C0,24.09375 3.359375,27.449219 7.5,27.449219 C11.644531,27.449219 15,24.09375 15,19.949219 Z" id="Path"></path>
                    <path d="M88.160156,35.304688 C97.867187,35.304688 107.574219,32.164062 115.671875,25.878906 C118.945312,23.339844 119.539062,18.628906 117,15.355469 C114.464843,12.082031 109.75,11.488281 106.480469,14.027344 C95.691406,22.394531 80.625,22.394531 69.839843,14.027344 C66.566406,11.488281 61.855469,12.082031 59.316406,15.355469 C56.777343,18.628906 57.371093,23.339844 60.644531,25.878906 C68.746093,32.164062 78.453125,35.304688 88.160156,35.304688 Z" id="Path"></path>
                </g>
                <g id="bubble" transform="translate(356.000000, 0.000000)" fill="#FDFFDE" stroke="#000000" stroke-width="13">
                    <circle id="Oval" cx="89.5" cy="89.5" r="89.5"></circle>
                    <polyline id="Path-2" points="46.226562 89.5 80.4140625 120.5 139.648438 45.703125"></polyline>
                </g>
            </g>
        </g>
    </g>
</svg>