<?xml version="1.0" encoding="UTF-8"?>
<svg width="419px" height="512px" viewBox="0 0 419 512" version="1.1" xmlns="http://www.w3.org/2000/svg" xmlns:xlink="http://www.w3.org/1999/xlink">
    <title>file-guy</title>
    <g stroke="none" stroke-width="1" fill="none" fill-rule="evenodd">
        <g id="file-guy" fill="#000000" fill-rule="nonzero">
            <g id="Group" transform="translate(121.292969, 242.062500)">
                <path d="M176.316406,19.949219 L176.316406,7.5 C176.316406,3.359375 172.957031,-1.42108547e-14 168.816406,-1.42108547e-14 C164.671875,-1.42108547e-14 161.316406,3.359375 161.316406,7.5 L161.316406,19.949219 C161.316406,24.09375 164.671875,27.449219 168.816406,27.449219 C172.957031,27.449219 176.316406,24.09375 176.316406,19.949219 Z" id="Path"></path>
                <path d="M15,19.949219 L15,7.5 C15,3.359375 11.644531,-1.42108547e-14 7.5,-1.42108547e-14 C3.359375,-1.42108547e-14 0,3.359375 0,7.5 L0,19.949219 C0,24.09375 3.359375,27.449219 7.5,27.449219 C11.644531,27.449219 15,24.09375 15,19.949219 Z" id="Path"></path>
                <path d="M88.160156,35.304688 C97.867187,35.304688 107.574219,32.164062 115.671875,25.878906 C118.945312,23.339844 119.539062,18.628906 117,15.355469 C114.464843,12.082031 109.75,11.488281 106.480469,14.027344 C95.691406,22.394531 80.625,22.394531 69.839843,14.027344 C66.566406,11.488281 61.855469,12.082031 59.316406,15.355469 C56.777343,18.628906 57.371093,23.339844 60.644531,25.878906 C68.746093,32.164062 78.453125,35.304688 88.160156,35.304688 Z" id="Path"></path>
            </g>
            <path d="M386.792969,153.074219 L265.832031,32.109375 C245.125,11.402344 217.59375,0 188.308594,0 L62.429688,0 C28.003906,0 0,28.003906 0,62.429688 L0,376.21875 C0,380.359375 3.359375,383.71875 7.5,383.71875 C11.640625,383.71875 15,380.359375 15,376.21875 L15,62.429688 C15,36.277344 36.277344,15 62.429688,15 L188.308594,15 C200.417969,15 212.179688,17.265625 223.113281,21.585938 L223.113281,137.09375 C223.113281,169.457031 249.445312,195.789062 281.808594,195.789062 L369.996094,195.789062 C374.136719,195.789062 377.496094,192.429688 377.496094,188.289062 C377.496094,184.144531 374.136719,180.789062 369.996094,180.789062 L281.808594,180.789062 C257.714844,180.789062 238.113281,161.1875 238.113281,137.09375 L238.113281,29.132812 C244.246094,32.941406 249.988281,37.484375 255.222656,42.71875 L376.1875,163.679688 C394.058594,181.554688 403.902344,205.316406 403.902344,230.59375 L403.902344,449.574219 C403.902344,475.722656 382.625,497 356.472656,497 L62.429688,497 C36.277344,497 15,475.726562 15,449.574219 L15,410.175781 C15,406.03125 11.640625,402.675781 7.5,402.675781 C3.359375,402.675781 0,406.03125 0,410.175781 L0,449.574219 C0,483.996094 28.003906,512 62.429688,512 L356.476562,512 C390.898438,512 418.902344,483.996094 418.902344,449.574219 L418.902344,230.59375 C418.902344,201.3125 407.5,173.78125 386.792969,153.074219 L386.792969,153.074219 Z" id="Path"></path>
            <path d="M338.28125,381.753906 L319.648438,381.753906 C315.503906,381.753906 312.148438,385.109375 312.148438,389.253906 C312.148438,393.394531 315.503906,396.753906 319.648438,396.753906 L330.78125,396.753906 L330.78125,405.6875 C330.78125,416.882812 321.675781,425.988281 310.480469,425.988281 C299.285156,425.988281 290.175781,416.882812 290.175781,405.6875 L290.175781,358.183594 C290.175781,346.988281 299.285156,337.882812 310.480469,337.882812 C318,337.882812 324.871094,342.007812 328.414062,348.652344 C330.363281,352.308594 334.90625,353.691406 338.558594,351.746094 C342.214844,349.796875 343.597656,345.253906 341.648438,341.597656 C335.496094,330.054688 323.550781,322.882812 310.480469,322.882812 C291.011719,322.882812 275.175781,338.71875 275.175781,358.183594 L275.175781,405.6875 C275.175781,425.152344 291.011719,440.988281 310.480469,440.988281 C329.945312,440.988281 345.78125,425.152344 345.78125,405.6875 L345.78125,389.253906 C345.78125,385.109375 342.425781,381.753906 338.28125,381.753906 L338.28125,381.753906 Z" id="Path"></path>
            <path d="M245.46875,323.242188 C241.527344,321.972656 237.300781,324.140625 236.03125,328.085938 L210.007812,408.992188 L183.988281,328.085938 C182.71875,324.140625 178.492188,321.972656 174.550781,323.242188 C170.609375,324.511719 168.4375,328.734375 169.707031,332.679688 L202.871094,435.785156 C203.867188,438.886719 206.753906,440.988281 210.011719,440.988281 C213.265625,440.988281 216.152344,438.886719 217.152344,435.785156 L250.3125,332.679688 C251.578125,328.734375 249.410156,324.511719 245.46875,323.242188 L245.46875,323.242188 Z" id="Path"></path>
            <path d="M104.667202,323 C107.921108,323 110.807827,325.101562 111.807827,328.203125 L144.967983,431.308593 C146.233608,435.253906 144.065639,439.476562 140.124233,440.746093 C136.182827,442.015625 131.956264,439.847656 130.686733,435.902343 C126.533948,422.991433 123.649612,414.024103 122.033727,409.000354 L87.2956634,408.999753 C87.2870369,409.026577 87.2784043,409.05342 87.2697658,409.080281 C85.6636905,414.07428 82.7883564,423.014968 78.6437637,435.902343 C77.3742327,439.847656 73.1476707,442.015625 69.2062637,440.746093 C65.2648577,439.476562 63.0929827,435.253906 64.3625137,431.308593 L97.5265767,328.203125 C98.5226707,325.101562 101.409389,323 104.667202,323 Z M104.663295,354.996093 C99.0891091,372.328706 94.907832,385.330149 92.1194635,394.000422 L117.208576,393.999073 C117.190097,393.941624 117.171675,393.88435 117.153309,393.827249 C114.37775,385.198104 110.214412,372.254385 104.663295,354.996093 Z" id="Combined-Shape"></path>
        </g>
    </g>
</svg>
