<?xml version="1.0" encoding="UTF-8"?>
<svg class="dood icon-drop-state" width="647px" height="762px" viewBox="0 0 647 762" version="1.1" xmlns="http://www.w3.org/2000/svg" xmlns:xlink="http://www.w3.org/1999/xlink">
    <!-- Generator: Sketch 58 (84663) - https://sketch.com -->
    <title>dood</title>
    <desc>Created with Sketch.</desc>
    <g class="dood" stroke="none" stroke-width="1" fill="none" fill-rule="evenodd">
        <g class="dood__body" transform="translate(66.000000, 177.000000)" fill-rule="nonzero">
            <path d="M356.472656,504.5 L62.429688,504.5 C32.09375,504.5 7.5,479.90625 7.5,449.570312 L7.5,62.425781 C7.5,32.089844 32.09375,7.5 62.429688,7.5 L188.308594,7.5 C215.398438,7.5 241.375,18.257812 260.527344,37.414062 L381.488281,158.375 C400.640625,177.527344 411.402344,203.507812 411.402344,230.59375 L411.402344,449.570312 C411.402344,479.90625 386.808594,504.5 356.472656,504.5 Z" class="body-bg" fill="#A1B1FD"></path>
            <path d="M225.574219,218.609375 C250.304688,275.714844 316.714844,272.449219 319.648438,381.753906 C321.292969,443.097656 311.785156,482.089844 303.128906,504.5 L356.476562,504.5 C386.8125,504.5 411.402344,479.90625 411.402344,449.574219 L411.402344,230.59375 C411.402344,203.507812 400.644531,177.53125 381.492188,158.378906 L318.886719,95.773438 L230.902344,95.773438 C230.898438,95.773438 200.839844,161.507812 225.574219,218.609375 Z" class="body-shadow" fill="#8E9DE7"></path>
            <path d="M381.488281,158.378906 L260.527344,37.414062 C251.796875,28.683594 241.640625,21.691406 230.613281,16.671875 L230.613281,137.09375 C230.613281,165.367188 253.535156,188.289062 281.808594,188.289062 L402.226562,188.289062 C397.210938,177.265625 390.21875,167.105469 381.488281,158.378906 L381.488281,158.378906 Z" class="body-corner" fill="#D1D7F6"></path>
            <path d="M386.792969,153.074219 L265.832031,32.109375 C245.125,11.402344 217.59375,0 188.308594,0 L62.429688,0 C28.003906,0 0,28.003906 0,62.429688 L0,376.21875 C0,380.359375 3.359375,383.71875 7.5,383.71875 C11.640625,383.71875 15,380.359375 15,376.21875 L15,62.429688 C15,36.277344 36.277344,15 62.429688,15 L188.308594,15 C200.417969,15 212.179688,17.265625 223.113281,21.585938 L223.113281,137.09375 C223.113281,169.457031 249.445312,195.789062 281.808594,195.789062 L369.996094,195.789062 C374.136719,195.789062 377.496094,192.429688 377.496094,188.289062 C377.496094,184.144531 374.136719,180.789062 369.996094,180.789062 L281.808594,180.789062 C257.714844,180.789062 238.113281,161.1875 238.113281,137.09375 L238.113281,29.132812 C244.246094,32.941406 249.988281,37.484375 255.222656,42.71875 L376.1875,163.679688 C394.058594,181.554688 403.902344,205.316406 403.902344,230.59375 L403.902344,449.574219 C403.902344,475.722656 382.625,497 356.472656,497 L62.429688,497 C36.277344,497 15,475.726562 15,449.574219 L15,410.175781 C15,406.03125 11.640625,402.675781 7.5,402.675781 C3.359375,402.675781 0,406.03125 0,410.175781 L0,449.574219 C0,483.996094 28.003906,512 62.429688,512 L356.476562,512 C390.898438,512 418.902344,483.996094 418.902344,449.574219 L418.902344,230.59375 C418.902344,201.3125 407.5,173.78125 386.792969,153.074219 L386.792969,153.074219 Z" class="body-outline" fill="#000000"></path>
        </g>
        <g class="dood__text" transform="translate(130.000000, 494.000000)" fill="#FDFFDE" fill-rule="nonzero">
            <path d="M273.763512,58.871094 L255.1307,58.871094 C250.986168,58.871094 247.6307,62.226563 247.6307,66.371094 C247.6307,70.511719 250.986168,73.871094 255.1307,73.871094 L266.263512,73.871094 L266.263512,82.804688 C266.263512,94 257.158043,103.105469 245.962731,103.105469 C234.767418,103.105469 225.658043,94 225.658043,82.804688 L225.658043,35.300782 C225.658043,24.105469 234.767418,15 245.962731,15 C253.482262,15 260.353356,19.125 263.896324,25.769532 C265.845543,29.425782 270.388512,30.808594 274.040856,28.863282 C277.697106,26.914063 279.079918,22.371094 277.1307,18.714844 C270.978356,7.171876 259.033043,0 245.962731,0 C226.493981,0 210.658043,15.835938 210.658043,35.300782 L210.658043,82.804688 C210.658043,102.269532 226.493981,118.105469 245.962731,118.105469 C265.427574,118.105469 281.263512,102.269532 281.263512,82.804688 L281.263512,66.371094 C281.263512,62.226563 277.908043,58.871094 273.763512,58.871094 L273.763512,58.871094 Z" class="text-g"></path>
            <path d="M181.453254,0.362868431 C177.511848,-0.906663569 173.285285,1.26130543 172.015754,5.20661843 L145.992316,86.1128684 L119.972785,5.20661843 C118.703254,1.26130543 114.476692,-0.906663569 110.535285,0.362868431 C106.593879,1.63239943 104.422004,5.85505543 105.691535,9.80036843 L138.855598,112.905836 C139.851692,116.007399 142.73841,118.108961 145.996223,118.108961 C149.250129,118.108961 152.136848,116.007399 153.136848,112.905836 L186.297004,9.80036843 C187.562629,5.85505543 185.39466,1.63239943 181.453254,0.362868431 L181.453254,0.362868431 Z" class="text-v"></path>
            <path d="M40.6672017,0 C43.9211077,0 46.8078267,2.101562 47.8078267,5.203125 L80.9679827,108.308593 C82.2336077,112.253906 80.0656387,116.476562 76.1242327,117.746093 C72.1828267,119.015625 67.9562637,116.847656 66.6867327,112.902343 C62.5339477,99.9914331 59.6496124,91.0241035 58.033727,86.000354 L23.2956634,85.9997534 C23.2870369,86.0265772 23.2784043,86.0534196 23.2697658,86.0802807 C21.6636905,91.0742804 18.7883564,100.014968 14.6437637,112.902343 C13.3742327,116.847656 9.14767068,119.015625 5.20626368,117.746093 C1.26485768,116.476562 -0.907017323,112.253906 0.362513677,108.308593 L33.5265767,5.203125 C34.5226707,2.101562 37.4093887,0 40.6672017,0 Z M40.6632947,31.996093 C35.0891091,49.3287056 30.907832,62.3301486 28.1194635,71.0004218 L53.2085756,70.9990731 C53.1900972,70.9416242 53.1716749,70.8843497 53.1533086,70.8272495 C50.37775,62.1981036 46.214412,49.2543848 40.6632947,31.996093 Z" class="text-a"></path>
        </g>
        <g class="dood__face" transform="translate(187.292969, 419.062500)" fill="#000000" fill-rule="nonzero">
            <path d="M176.833486,19.949219 L176.833486,7.5 C176.833486,3.359375 173.474111,-1.42108547e-14 169.333486,-1.42108547e-14 C165.188955,-1.42108547e-14 161.833486,3.359375 161.833486,7.5 L161.833486,19.949219 C161.833486,24.09375 165.188955,27.449219 169.333486,27.449219 C173.474111,27.449219 176.833486,24.09375 176.833486,19.949219 Z" class="face-eye-right"></path>
            <path d="M15,19.949219 L15,7.5 C15,3.359375 11.644531,-1.42108547e-14 7.5,-1.42108547e-14 C3.359375,-1.42108547e-14 -2.84217094e-14,3.359375 -2.84217094e-14,7.5 L-2.84217094e-14,19.949219 C-2.84217094e-14,24.09375 3.359375,27.449219 7.5,27.449219 C11.644531,27.449219 15,24.09375 15,19.949219 Z" class="face-eye-left"></path>
            <path d="M88.4186961,44.3522901 C98.1257271,44.3522901 107.832759,41.2116641 115.930415,34.9265081 C119.203852,32.3874461 119.797602,27.6765081 117.25854,24.4030711 C114.723383,21.1296331 110.00854,20.5358831 106.739009,23.0749461 C95.9499461,31.4421331 80.8835401,31.4421331 70.0983831,23.0749461 C66.8249461,20.5358831 62.1140091,21.1296331 59.5749461,24.4030711 C57.0358831,27.6765081 57.6296331,32.3874461 60.9030711,34.9265081 C69.0046331,41.2116641 78.7116651,44.3522901 88.4186961,44.3522901 Z" class="face-mouth-happy"></path>
            <path d="M88.4186961,45.7045803 C98.1257271,45.7045803 107.832759,42.5639543 115.930415,36.2787983 C119.203852,33.7397363 119.797602,29.0287983 117.25854,25.7553613 C114.723383,22.4819233 110.00854,21.8881733 106.739009,24.4272363 C95.9499461,32.7944233 80.8835401,32.7944233 70.0983831,24.4272363 C66.8249461,21.8881733 62.1140091,22.4819233 59.5749461,25.7553613 C57.0358831,29.0287983 57.6296331,33.7397363 60.9030711,36.2787983 C69.0046331,42.5639543 78.7116651,45.7045803 88.4186961,45.7045803 Z" class="face-mouth-sad" transform="translate(88.416743, 34.278435) scale(1, -1) translate(-88.416743, -34.278435) "></path>
        </g>
        <g class="dood__bubble" transform="translate(422.000000, 64.000000)" stroke="#000000">
            <circle class="bubble-bg" stroke-width="13" fill="#FDFFDE" cx="89.5" cy="89.5" r="89.5"></circle>
            <polyline class="bubble-check" stroke-width="13" fill="#FDFFDE" points="46.226562 89.5 80.4140625 120.5 139.648438 45.703125"></polyline>
            <path d="M51.7299392,51.7100874 L127.289518,127.269667 M126.770061,51.7100874 L51.2104816,127.269667" class="bubble-x" stroke-width="10" stroke-linecap="square"></path>
        </g>
    </g>
</svg>
