<?xml version="1.0" encoding="UTF-8"?>
<svg width="419px" height="512px" viewBox="0 0 419 512" version="1.1" xmlns="http://www.w3.org/2000/svg" xmlns:xlink="http://www.w3.org/1999/xlink">
    <title>file-guy</title>
    <g id="Page-1" stroke="none" stroke-width="1" fill="none" fill-rule="evenodd">
        <g id="file-guy" fill="#000000" fill-rule="nonzero">
            <g id="face" transform="translate(121.292969, 242.062500)">
                <path d="M176.316406,19.949219 L176.316406,7.5 C176.316406,3.359375 172.957031,-1.42108547e-14 168.816406,-1.42108547e-14 C164.671875,-1.42108547e-14 161.316406,3.359375 161.316406,7.5 L161.316406,19.949219 C161.316406,24.09375 164.671875,27.449219 168.816406,27.449219 C172.957031,27.449219 176.316406,24.09375 176.316406,19.949219 Z" id="Path"></path>
                <path d="M15,19.949219 L15,7.5 C15,3.359375 11.644531,-1.42108547e-14 7.5,-1.42108547e-14 C3.359375,-1.42108547e-14 0,3.359375 0,7.5 L0,19.949219 C0,24.09375 3.359375,27.449219 7.5,27.449219 C11.644531,27.449219 15,24.09375 15,19.949219 Z" id="Path"></path>
                <path d="M88.160156,35.304688 C97.867187,35.304688 107.574219,32.164062 115.671875,25.878906 C118.945312,23.339844 119.539062,18.628906 117,15.355469 C114.464843,12.082031 109.75,11.488281 106.480469,14.027344 C95.691406,22.394531 80.625,22.394531 69.839843,14.027344 C66.566406,11.488281 61.855469,12.082031 59.316406,15.355469 C56.777343,18.628906 57.371093,23.339844 60.644531,25.878906 C68.746093,32.164062 78.453125,35.304688 88.160156,35.304688 Z" id="Path"></path>
            </g>
            <path d="M386.792969,153.074219 L265.832031,32.109375 C245.125,11.402344 217.59375,0 188.308594,0 L62.429688,0 C28.003906,0 0,28.003906 0,62.429688 L0,376.21875 C0,380.359375 3.359375,383.71875 7.5,383.71875 C11.640625,383.71875 15,380.359375 15,376.21875 L15,62.429688 C15,36.277344 36.277344,15 62.429688,15 L188.308594,15 C200.417969,15 212.179688,17.265625 223.113281,21.585938 L223.113281,137.09375 C223.113281,169.457031 249.445312,195.789062 281.808594,195.789062 L369.996094,195.789062 C374.136719,195.789062 377.496094,192.429688 377.496094,188.289062 C377.496094,184.144531 374.136719,180.789062 369.996094,180.789062 L281.808594,180.789062 C257.714844,180.789062 238.113281,161.1875 238.113281,137.09375 L238.113281,29.132812 C244.246094,32.941406 249.988281,37.484375 255.222656,42.71875 L376.1875,163.679688 C394.058594,181.554688 403.902344,205.316406 403.902344,230.59375 L403.902344,449.574219 C403.902344,475.722656 382.625,497 356.472656,497 L62.429688,497 C36.277344,497 15,475.726562 15,449.574219 L15,410.175781 C15,406.03125 11.640625,402.675781 7.5,402.675781 C3.359375,402.675781 0,406.03125 0,410.175781 L0,449.574219 C0,483.996094 28.003906,512 62.429688,512 L356.476562,512 C390.898438,512 418.902344,483.996094 418.902344,449.574219 L418.902344,230.59375 C418.902344,201.3125 407.5,173.78125 386.792969,153.074219 L386.792969,153.074219 Z" id="doc"></path>
            <g id="text" transform="translate(64.000000, 322.879320)">
                <path d="M274.28125,58.8745864 L255.648438,58.8745864 C251.503906,58.8745864 248.148438,62.2300554 248.148438,66.3745864 C248.148438,70.5152114 251.503906,73.8745864 255.648438,73.8745864 L266.78125,73.8745864 L266.78125,82.8081804 C266.78125,94.0034924 257.675781,103.108961 246.480469,103.108961 C235.285156,103.108961 226.175781,94.0034924 226.175781,82.8081804 L226.175781,35.3042744 C226.175781,24.1089614 235.285156,15.0034924 246.480469,15.0034924 C254,15.0034924 260.871094,19.1284924 264.414062,25.7730244 C266.363281,29.4292744 270.90625,30.8120864 274.558594,28.8667744 C278.214844,26.9175554 279.597656,22.3745864 277.648438,18.7183364 C271.496094,7.17536843 259.550781,0.00349243092 246.480469,0.00349243092 C227.011719,0.00349243092 211.175781,15.8394304 211.175781,35.3042744 L211.175781,82.8081804 C211.175781,102.273024 227.011719,118.108961 246.480469,118.108961 C265.945312,118.108961 281.78125,102.273024 281.78125,82.8081804 L281.78125,66.3745864 C281.78125,62.2300554 278.425781,58.8745864 274.28125,58.8745864 L274.28125,58.8745864 Z" id="Path"></path>
                <path d="M181.46875,0.362868431 C177.527344,-0.906663569 173.300781,1.26130543 172.03125,5.20661843 L146.007812,86.1128684 L119.988281,5.20661843 C118.71875,1.26130543 114.492188,-0.906663569 110.550781,0.362868431 C106.609375,1.63239943 104.4375,5.85505543 105.707031,9.80036843 L138.871094,112.905836 C139.867188,116.007399 142.753906,118.108961 146.011719,118.108961 C149.265625,118.108961 152.152344,116.007399 153.152344,112.905836 L186.3125,9.80036843 C187.578125,5.85505543 185.410156,1.63239943 181.46875,0.362868431 L181.46875,0.362868431 Z" id="Path"></path>
                <path d="M42.398438,51.5542744 C32.320312,51.5542744 24.121094,43.3550554 24.121094,33.2769304 C24.121094,23.2027114 32.320312,15.0034924 42.398438,15.0034924 L62.53125,15.0034924 C66.671875,15.0034924 70.03125,11.6441184 70.03125,7.50349243 C70.03125,3.35896143 66.671875,0.00349243092 62.53125,0.00349243092 L42.398438,0.00349243092 C24.046875,0.00349243092 9.121094,14.9292744 9.121094,33.2769304 C9.121094,51.6284924 24.046875,66.5542744 42.398438,66.5542744 C52.476562,66.5542744 60.675781,74.7534924 60.675781,84.8316184 C60.675781,94.9097424 52.476562,103.108961 42.398438,103.108961 L21.433594,103.108961 C17.292969,103.108961 13.933594,106.468336 13.933594,110.608961 C13.933594,114.753492 17.292969,118.108961 21.433594,118.108961 L42.398438,118.108961 C60.746094,118.108961 75.675781,103.18318 75.675781,84.8316184 C75.675781,66.4839614 60.746094,51.5542744 42.398438,51.5542744 L42.398438,51.5542744 Z" id="Path"></path>
            </g>
        </g>
    </g>
</svg>
